<?xml version="1.0" encoding="UTF-8"?>
<svg version="1.1" viewBox="0 0 2048 2048" width="1280" height="1280" xmlns="http://www.w3.org/2000/svg">
<path transform="translate(0)" d="m0 0h2048v2048h-2048z" fill="#FEFEFE"/>
<path transform="translate(757,553)" d="m0 0h67l3 1v5l-4 3-12 2-26 3-23 5-12 5-10 6-10 8-10 14-5 11-3 11-1 6v22l4 25 6 23 12 36 14 38 41 108 26 69 19 50 20 53 18 47 18 48 15 39 15 40 15 39 15 40 9 23 17 44 11 30 4 8 2-2 9-26 15-40 10-27 11-31 9-24 6-17 17-46 20-54 13-35 17-46 36-99 11-30 24-68 22-64 14-42 10-34 6-27 3-19v-36l-4-17-5-13-6-11-10-13-9-8-16-9-16-6-17-4-35-5-4-2-1-5 2-1 201-1h46l25 1 1 5-3 3-22 5-13 5-12 8-10 9-9 9-13 18-9 15-14 27-8 17-12 29-12 30-15 38-14 37-33 88-22 58-22 59-13 34-33 88-16 42-16 43-16 42-16 43-15 40-10 27-28 72-14 37-14 35-5 12-4 4-5-4-8-19-13-35-13-34-17-45-19-50-20-53-18-47-15-40-11-29-20-52-31-82-15-40-20-53-21-55-20-53-14-37-18-48-15-39-13-31-13-29-12-24-10-17-11-15-12-14-14-11-15-8-17-5-11-3-3-3v-4z" fill="#262627"/>
<path transform="translate(454,1061)" d="m0 0 6 1 25 12 36 16 45 19 42 16 50 17 34 10 32 8 41 9 3 2h-10l-19-3-43-10-41-12-44-15-35-13-35-14-28-12-35-16-19-7h-2l4 6 3 15 5 14 5 12 11 25 10 19 11 19 11 17 10 14 11 15 2 6-6-4-10-13-12-17-11-18-12-21-8-16-12-26-9-23-5-18z" fill="#262627"/>
<path transform="translate(467,827)" d="m0 0 4 1 3 7 6 24 11 35 11 29 6 5 24 10 73 27 47 15 21 5 12 3-1 2-13-1-24-6-48-15-17-5-11-5-48-18-17-8 10 26 8 16 8 18 6 11 1 7-4-4-11-22-14-31-7-19-4-4-15-7-12-5-7-6-1-4 7 3 20 9 6 3 3 2-4-8-13-35-11-36-5-16z" fill="#262627"/>
<path transform="translate(500,1024)" d="m0 0 11 3 18 8 31 15 29 13 25 12 47 23 35 18 18 10 21 12 27 15 14 9 4 5-5-1-16-11-17-10-22-12-14-8-24-13-19-10-34-17-28-13-23-11-27-12-29-13-20-8z" fill="#262627"/>
<path transform="translate(600,1014)" d="m0 0 20 1 11 3 6 3 1 5-24-6v5h-1v-5l-14 1-2-3v-3z" fill="#262627"/>
<path transform="translate(614,1027)" d="m0 0h1l2 10 5 4 7 4-1 6-2 3-9-1-3-14z" fill="#414142"/>
<path transform="translate(592,977)" d="m0 0 5 5 6 2-1 2h-3l3 4 3 1v4l1 5-2-1-3-5-5-6-1 4 4 2 1 3-5-1-5-8v-7z" fill="#2A2A2B"/>
</svg>
